<svg width="64" height="64" viewBox="0 0 64 64" fill="none" xmlns="http://www.w3.org/2000/svg">
<circle cx="32" cy="32" r="31.25" fill="white" stroke="black" stroke-width="1.5"/>
<path d="M41.8265 49.303V40.4912C41.8261 40.1049 41.7242 39.7255 41.5308 39.391C41.3375 39.0566 41.0596 38.7788 40.7251 38.5857L33.0147 34.1798C32.6799 33.9864 32.3 33.8847 31.9133 33.8847C31.5266 33.8847 31.1467 33.9864 30.8118 34.1798L23.1015 38.5857C22.7669 38.7788 22.489 39.0566 22.2957 39.391C22.1024 39.7255 22.0004 40.1049 22 40.4912V49.303C22.0004 49.6893 22.1024 50.0688 22.2957 50.4032C22.489 50.7377 22.7669 51.0154 23.1015 51.2086L30.8118 55.6145C31.1467 55.8078 31.5266 55.9096 31.9133 55.9096C32.3 55.9096 32.6799 55.8078 33.0147 55.6145L40.7251 51.2086C41.0596 51.0154 41.3375 50.7377 41.5308 50.4032C41.7242 50.0688 41.8261 49.6893 41.8265 49.303Z" fill="white"/>
<path d="M22.2974 39.3457L31.9133 44.9082L41.5291 39.3457" fill="white"/>
<path d="M22.2974 39.3457L31.9133 44.9082L41.5291 39.3457M31.9133 56V44.8971M41.8265 49.303V40.4912C41.8261 40.1049 41.7242 39.7255 41.5308 39.391C41.3375 39.0566 41.0596 38.7788 40.7251 38.5857L33.0147 34.1798C32.6799 33.9864 32.3 33.8847 31.9133 33.8847C31.5266 33.8847 31.1467 33.9864 30.8118 34.1798L23.1015 38.5857C22.7669 38.7788 22.489 39.0566 22.2957 39.391C22.1024 39.7255 22.0004 40.1049 22 40.4912V49.303C22.0004 49.6893 22.1024 50.0688 22.2957 50.4032C22.489 50.7377 22.7669 51.0154 23.1015 51.2086L30.8118 55.6145C31.1467 55.8078 31.5266 55.9096 31.9133 55.9096C32.3 55.9096 32.6799 55.8078 33.0147 55.6145L40.7251 51.2086C41.0596 51.0154 41.3375 50.7377 41.5308 50.4032C41.7242 50.0688 41.8261 49.6893 41.8265 49.303Z" stroke="#1E1E1E" stroke-width="1.6" stroke-linecap="round" stroke-linejoin="round"/>
<path d="M31.5076 34.4837C31.8984 34.5401 32.2968 34.5117 32.6757 34.4005C33.0546 34.2894 33.4052 34.098 33.7036 33.8395C34.002 33.5809 34.2414 33.2612 34.4054 32.902C34.5694 32.5428 34.6543 32.1526 34.6542 31.7577L34.6542 29.4211C34.6417 28.6992 34.3461 28.0111 33.8311 27.505C33.3161 26.9989 32.623 26.7153 31.9009 26.7153C31.1789 26.7153 30.4858 26.9989 29.9708 27.505C29.4558 28.0111 29.1602 28.6992 29.1477 29.4211L29.1438 30.7569M32.2865 32.1471C31.8956 32.0908 31.4973 32.1192 31.1184 32.2303C30.7395 32.3415 30.3889 32.5328 30.0905 32.7914C29.792 33.0499 29.5527 33.3696 29.3887 33.7288C29.2247 34.088 29.1398 34.4783 29.1399 34.8731L29.1399 37.2097C29.1524 37.9317 29.448 38.6198 29.963 39.1259C30.478 39.632 31.1711 39.9156 31.8931 39.9156C32.6152 39.9156 33.3083 39.632 33.8233 39.1259C34.3383 38.6198 34.6339 37.9317 34.6464 37.2097L34.6464 35.8779" stroke="#1E1E1E" stroke-width="1.5" stroke-linecap="round" stroke-linejoin="round"/>
<path d="M41.8265 23.4184V14.6066C41.8261 14.2203 41.7242 13.8409 41.5308 13.5064C41.3375 13.1719 41.0596 12.8942 40.7251 12.701L33.0147 8.29514C32.6799 8.10179 32.3 8 31.9133 8C31.5266 8 31.1467 8.10179 30.8118 8.29514L23.1015 12.701C22.7669 12.8942 22.489 13.1719 22.2957 13.5064C22.1024 13.8409 22.0004 14.2203 22 14.6066V23.4184C22.0004 23.8047 22.1024 24.1841 22.2957 24.5186C22.489 24.853 22.7669 25.1308 23.1015 25.3239L30.8118 29.7298C31.1467 29.9232 31.5266 30.025 31.9133 30.025C32.3 30.025 32.6799 29.9232 33.0147 29.7298L40.7251 25.3239C41.0596 25.1308 41.3375 24.853 41.5308 24.5186C41.7242 24.1841 41.8261 23.8047 41.8265 23.4184Z" fill="white"/>
<path d="M22.2974 13.4611L31.9133 19.0235L41.5291 13.4611" fill="white"/>
<path d="M22.2974 13.4611L31.9133 19.0235L41.5291 13.4611M31.9133 30.1153V19.0125M41.8265 23.4184V14.6066C41.8261 14.2203 41.7242 13.8409 41.5308 13.5064C41.3375 13.1719 41.0596 12.8942 40.7251 12.701L33.0147 8.29514C32.6799 8.10179 32.3 8 31.9133 8C31.5266 8 31.1467 8.10179 30.8118 8.29514L23.1015 12.701C22.7669 12.8942 22.489 13.1719 22.2957 13.5064C22.1024 13.8409 22.0004 14.2203 22 14.6066V23.4184C22.0004 23.8047 22.1024 24.1841 22.2957 24.5186C22.489 24.853 22.7669 25.1308 23.1015 25.3239L30.8118 29.7298C31.1467 29.9232 31.5266 30.025 31.9133 30.025C32.3 30.025 32.6799 29.9232 33.0147 29.7298L40.7251 25.3239C41.0596 25.1308 41.3375 24.853 41.5308 24.5186C41.7242 24.1841 41.8261 23.8047 41.8265 23.4184Z" stroke="#1E1E1E" stroke-width="1.6" stroke-linecap="round" stroke-linejoin="round"/>
</svg>
